<?xml version="1.0" encoding="UTF-8" standalone="no"?>
<!-- Created with Inkscape (http://www.inkscape.org/) -->

<svg
   xmlns:dc="http://purl.org/dc/elements/1.1/"
   xmlns:cc="http://creativecommons.org/ns#"
   xmlns:rdf="http://www.w3.org/1999/02/22-rdf-syntax-ns#"
   xmlns:svg="http://www.w3.org/2000/svg"
   xmlns="http://www.w3.org/2000/svg"
   xmlns:sodipodi="http://sodipodi.sourceforge.net/DTD/sodipodi-0.dtd"
   xmlns:inkscape="http://www.inkscape.org/namespaces/inkscape"
   width="53.329403"
   height="53.337265"
   id="svg2982"
   version="1.1"
   inkscape:version="0.92.1 r15371"
   sodipodi:docname="Zoomin.svg">
  <defs
     id="defs2984" />
  <sodipodi:namedview
     id="base"
     pagecolor="#ffffff"
     bordercolor="#666666"
     borderopacity="1.0"
     inkscape:pageopacity="0.0"
     inkscape:pageshadow="2"
     inkscape:zoom="5.6"
     inkscape:cx="14.106872"
     inkscape:cy="28.482606"
     inkscape:document-units="px"
     inkscape:current-layer="layer1"
     showgrid="false"
     fit-margin-top="0"
     fit-margin-left="0"
     fit-margin-right="0"
     fit-margin-bottom="0"
     inkscape:window-width="1280"
     inkscape:window-height="669"
     inkscape:window-x="0"
     inkscape:window-y="27"
     inkscape:window-maximized="1" />
  <metadata
     id="metadata2987">
    <rdf:RDF>
      <cc:Work
         rdf:about="">
        <dc:format>image/svg+xml</dc:format>
        <dc:type
           rdf:resource="http://purl.org/dc/dcmitype/StillImage" />
        <dc:title></dc:title>
      </cc:Work>
    </rdf:RDF>
  </metadata>
  <g
     inkscape:label="Capa 1"
     inkscape:groupmode="layer"
     id="layer1"
     transform="translate(-256.02589,-558.36567)">
    <g
       id="g822"
       transform="translate(1.25,-1.0714286)">
      <g
         transform="matrix(0.08931812,-0.08882131,0.08898737,0.08915145,204.64052,559.79447)"
         id="g3768">
        <path
           inkscape:connector-curvature="0"
           id="path2990"
           d="M 387.80431,414.97192 A 142.1921,142.1921 34.285618 0 0 285.79289,371.84341 142.1921,142.1921 34.285618 0 0 143.59803,514.03893 142.1921,142.1921 34.285618 0 0 285.79115,656.23237 142.1921,142.1921 34.285618 0 0 427.98601,514.03685 142.1921,142.1921 34.285618 0 0 387.80431,414.97192 Z M 305.5312,662.72724 c -0.23792,-0.23793 -0.56388,-0.37712 -0.9285,-0.37712 l -37.61183,-5.8e-4 c -0.72926,0 -1.30667,0.58226 -1.30666,1.31152 l -0.001,159.18104 c 0,0.72925 0.57983,1.32531 1.30909,1.32531 l 37.60126,-0.01 c 0.72927,0 1.32777,-0.58231 1.32777,-1.31157 l -0.01,-159.17046 c 0,-0.36463 -0.14264,-0.71027 -0.38058,-0.9482 z"
           style="fill:none;stroke:#000000;stroke-width:31.05885696;stroke-miterlimit:4;stroke-dasharray:none;stroke-opacity:1" />
      </g>
      <text
         id="text2985"
         y="588.61383"
         x="264.2095"
         style="font-style:normal;font-weight:normal;font-size:12.80000019px;line-height:0%;font-family:sans-serif;letter-spacing:0px;word-spacing:0px;fill:#000000;fill-opacity:1;stroke:none;stroke-width:1.06666672"
         xml:space="preserve"><tspan
           style="font-size:28.03558159px;line-height:1.25;font-family:sans-serif;stroke-width:1.06666672"
           y="588.61383"
           x="264.2095"
           id="tspan2987"
           sodipodi:role="line">+</tspan></text>
    </g>
    <rect
       style="opacity:1;fill:none;fill-opacity:0.56018521;stroke-width:1.00504899"
       id="rect824"
       width="53.392853"
       height="53.214283"
       x="256.02591"
       y="558.31006" />
  </g>
</svg>
